<svg xmlns="http://www.w3.org/2000/svg" height="2048" preserveAspectRatio="none" style="display: block;" version="1.1" viewBox="0 0 2048 2048" width="2048">
<path d="M 0 0 L 2048 0 L 2048 2048 L 0 2048 L 0 0 z" fill="rgb(248,215,44)" transform="translate(0,0)"></path>
<path d="M 393.961 1035.23 C 392.599 948.243 393.779 858.775 393.776 771.582 L 393.594 678.168 C 393.557 660.612 393.386 643.001 393.591 625.451 C 394.293 565.183 419.569 506.077 461.454 462.89 C 503.262 419.783 560.459 395.015 620.501 394.018 C 679.817 393.315 737.616 418.222 778.845 460.281 C 800.286 482.155 823.279 514.909 842.083 539.919 L 931.12 658.218 L 1221.69 1047.42 L 1287.72 1136.59 C 1304.1 1158.6 1323.1 1187.24 1343.78 1204.53 C 1407.33 1257.69 1505.79 1244.49 1562.54 1187.74 C 1565.23 1185.06 1567.46 1182.97 1569.39 1179.7 L 1570.48 1180.21 C 1578.41 1174.23 1590.26 1159.92 1597.04 1152 C 1624.2 1120.32 1641.96 1083.11 1650.83 1042.36 C 1653.2 1031.49 1654.26 1021.5 1656.16 1010.6 C 1657.16 1018.96 1656.45 1047.16 1656.43 1056.73 L 1656.28 1157.05 L 1656.46 1341.11 C 1656.54 1373.01 1658.36 1427.58 1653.35 1457.54 C 1647.26 1493.38 1633.05 1527.34 1611.83 1556.84 C 1576.32 1607.04 1522.32 1641.07 1461.72 1651.47 C 1376.98 1665.47 1295.08 1629.1 1245.47 1559.73 C 1230.9 1539.35 1214.93 1518.83 1199.91 1498.65 C 1172.87 1462.8 1146.09 1426.76 1119.55 1390.53 L 823.133 991.354 L 770.672 920.456 C 751.025 893.971 728.999 859.925 702.579 841.174 C 667.193 815.901 623.011 806.198 580.292 814.319 C 545.25 820.637 500.167 842.743 479.498 872.241 C 472.003 873.532 444.008 909.578 438.698 917.084 C 420.41 942.947 407.341 972.128 400.222 1002.99 C 397.744 1013.7 396.222 1025.52 393.961 1035.23 z" fill="rgb(43,43,49)" transform="translate(0,0)"></path>
<path d="M 1171.27 769.416 C 1127.07 743.253 1094.79 700.892 1081.3 651.325 C 1068.07 601.7 1075.02 548.855 1100.62 504.334 C 1130.91 452.951 1180.47 415.797 1238.29 401.133 C 1252.05 397.681 1266.11 395.516 1280.28 394.667 C 1303.32 393.122 1337.26 394.325 1361 394.279 C 1395.88 394.213 1436.83 392.275 1470.53 398.782 C 1495.04 403.705 1518.54 412.731 1540.05 425.479 C 1594.68 457.857 1634 510.83 1649.19 572.492 C 1657.83 606.298 1656.4 635.003 1656.47 669.439 L 1656.65 743.968 L 1656.36 835.345 C 1656.38 858.017 1656.88 882.862 1656.26 905.403 L 1656.31 973.748 C 1656.32 984.521 1656.81 1000.13 1656.16 1010.6 C 1654.26 1021.5 1653.2 1031.49 1650.83 1042.36 C 1641.96 1083.11 1624.2 1120.32 1597.04 1152 C 1590.26 1159.92 1578.41 1174.23 1570.48 1180.21 L 1569.39 1179.7 C 1601.56 1113.18 1589.25 1046.99 1536.24 994.77 C 1521.61 980.363 1503.49 970.926 1486.03 960.326 L 1430.54 926.725 L 1255.98 821.087 C 1229.58 805.031 1196.15 786.232 1171.27 769.416 z" fill="rgb(43,43,49)" transform="translate(0,0)"></path>
<path d="M 1171.27 769.416 C 1176.85 769.86 1186.87 774.633 1192.7 776.549 C 1228.22 788.225 1272.04 784.251 1309.49 784.187 L 1444.56 784.128 C 1477.14 784.124 1513.86 781.784 1545.45 787.983 C 1595.8 797.865 1638.36 835.233 1651.61 885.128 C 1653.21 891.215 1653.5 900.077 1656.26 905.403 L 1656.31 973.748 C 1656.32 984.521 1656.81 1000.13 1656.16 1010.6 C 1654.26 1021.5 1653.2 1031.49 1650.83 1042.36 C 1641.96 1083.11 1624.2 1120.32 1597.04 1152 C 1590.26 1159.92 1578.41 1174.23 1570.48 1180.21 L 1569.39 1179.7 C 1601.56 1113.18 1589.25 1046.99 1536.24 994.77 C 1521.61 980.363 1503.49 970.926 1486.03 960.326 L 1430.54 926.725 L 1255.98 821.087 C 1229.58 805.031 1196.15 786.232 1171.27 769.416 z" fill="rgb(7,14,20)" transform="translate(0,0)"></path>
<path d="M 393.961 1035.23 C 396.222 1025.52 397.744 1013.7 400.222 1002.99 C 407.341 972.128 420.41 942.947 438.698 917.084 C 444.008 909.578 472.003 873.532 479.498 872.241 C 462.055 916.322 457.865 958.876 477.009 1003.62 C 486.645 1025.72 501.347 1045.24 519.927 1060.6 C 538.982 1076.6 589.649 1104.73 612.792 1118.77 L 791.6 1227.34 C 818.331 1243.61 858.296 1266.2 882.974 1283.64 C 891.437 1287.7 913.229 1306.2 919.659 1312.62 C 954.975 1348 974.522 1396.13 973.873 1446.12 C 973.388 1500.92 951.232 1553.3 912.246 1591.81 C 877.08 1626.2 831.345 1647.72 782.434 1652.9 C 732.903 1657.96 675.746 1652.69 625.462 1654.54 C 565.076 1656.77 501.088 1627.24 459.26 1583.82 C 430.169 1553.7 409.538 1516.44 399.451 1475.8 C 392.469 1447.18 393.621 1420.54 393.653 1391.47 L 393.703 1325.99 C 393.65 1265.01 392.603 1199.6 393.916 1138.85 C 392.952 1107.48 393.183 1066.58 393.961 1035.23 z" fill="rgb(43,43,49)" transform="translate(0,0)"></path>
<path d="M 393.961 1035.23 C 396.222 1025.52 397.744 1013.7 400.222 1002.99 C 407.341 972.128 420.41 942.947 438.698 917.084 C 444.008 909.578 472.003 873.532 479.498 872.241 C 462.055 916.322 457.865 958.876 477.009 1003.62 C 486.645 1025.72 501.347 1045.24 519.927 1060.6 C 538.982 1076.6 589.649 1104.73 612.792 1118.77 L 791.6 1227.34 C 818.331 1243.61 858.296 1266.2 882.974 1283.64 C 879.566 1283.81 873.963 1281.14 870.647 1279.65 C 829.472 1261.17 782.082 1265.4 737.685 1265.41 L 595.662 1265.44 C 573.53 1265.44 533.392 1266.62 512.931 1263.3 C 492.936 1260.24 473.797 1253.05 456.728 1242.2 C 415.802 1215.66 403.246 1183.68 393.916 1138.85 C 392.952 1107.48 393.183 1066.58 393.961 1035.23 z" fill="rgb(7,14,20)" transform="translate(0,0)"></path>
<metadata><recraft-signature>{"signed_by": "recraft", "signature_b64": "RPz2ElZcmRD0HnqERI0qrnXXCV5DIYdWNEiHjehlirNVSx0yJ6v5f4XdsoYxeQVwjFxigpi3v5Rpi/WXaYVnDA==", "signing_algo": "Ed25519", "generation_timestamp": 1773020305, "identifier": "d22d2840-5f36-4ba3-b4ea-6fb0e906008d"}</recraft-signature></metadata></svg>