<svg xmlns="http://www.w3.org/2000/svg" height="2048" preserveAspectRatio="none" style="display: block;" version="1.1" viewBox="0 0 2048 2048" width="2048">
<path d="M 0 0 L 2048 0 L 2048 2048 L 0 2048 L 0 0 z" fill="rgb(248,215,57)" transform="translate(0,0)"></path>
<path d="M 482.544 832.955 C 461.76 808.041 447.961 772.411 441.002 741.015 C 403.671 572.587 552.833 408.744 723.531 425.054 C 759.499 428.488 794.248 439.9 825.249 458.457 C 866.61 483.691 911.183 532.94 946.233 568.79 L 1046.15 669.755 C 1061.41 685.125 1077.7 702.62 1093.14 717.419 C 1082.83 652.02 1102.64 583.819 1141.43 530.773 C 1182.26 474.769 1243.69 437.306 1312.17 426.647 C 1378.61 416.672 1446.28 433.802 1499.97 474.19 C 1560.01 518.299 1599.86 584.64 1610.59 658.365 C 1615.37 692.642 1613.41 757.557 1613.41 794.361 L 1613.41 875.25 C 1613.39 907.963 1614.39 937.22 1607.31 969.571 C 1599.38 1004.87 1583.97 1038.06 1562.11 1066.89 C 1548.29 1085.03 1528 1105.11 1511.79 1121.1 L 1459.61 1173.44 C 1425.65 1207.47 1394.62 1236.36 1374.53 1281.12 C 1371.74 1287.35 1364.86 1299.08 1364.72 1305.6 C 1378.56 1292.92 1394.53 1275.58 1408.2 1262.18 C 1442.53 1228.52 1476.14 1193.57 1510.67 1160.15 C 1529.64 1175.65 1553.64 1194.07 1567.33 1214.14 C 1598.07 1251.85 1613.59 1314.57 1613.09 1362.8 C 1611.69 1433.03 1582.48 1499.83 1531.88 1548.53 C 1482.71 1597.28 1416.13 1624.41 1346.9 1623.9 C 1304.12 1623.26 1262.25 1611.52 1225.37 1589.83 C 1179.38 1562.38 1130.14 1507.01 1091.24 1467.49 L 957.459 1331 C 959.509 1356.01 960.524 1377.3 956.914 1402.5 C 946.631 1471 909.508 1532.6 853.739 1573.69 C 798.932 1614.5 730.039 1631.61 662.509 1621.17 C 594.152 1611.07 531.434 1570.03 490.634 1514.81 C 467.2 1483.47 450.704 1447.49 442.242 1409.29 C 439.175 1394.77 437.216 1380.04 436.38 1365.22 C 435.557 1350.3 436.022 1331.8 436.042 1316.58 L 436.048 1233.29 L 435.894 1157.92 C 435.857 1135.62 435.254 1115.78 438.38 1093.54 C 442.43 1064.93 451.371 1037.23 464.811 1011.65 C 483.102 977.593 502.412 959.071 528.862 932.414 L 583.301 877.659 C 605.088 855.883 629.242 833.164 646.998 808.094 C 656.963 794.024 679.039 758.948 680.669 742.312 C 635.253 789.977 584.141 838.687 537.514 885.608 C 523.444 874.545 490.57 847.774 482.544 832.955 z" fill="rgb(37,38,42)" transform="translate(0,0)"></path>
<path d="M 1315.66 667.568 C 1326.9 674.285 1341.48 708.66 1344.06 721.511 C 1349.63 749.212 1347.79 784.941 1347.79 813.626 L 1347.81 948.567 L 1347.81 1205.83 C 1347.81 1245.96 1349 1293.42 1347.8 1333.15 C 1333.19 1320.01 1311.08 1296.1 1296.67 1281.47 L 1195.6 1178.75 C 1159.62 1142.18 1122.33 1098.27 1075.98 1076.79 C 1017.28 1049.16 949.998 1046.04 888.995 1068.12 C 824.585 1091.77 772.406 1140.35 744.224 1202.91 C 719.627 1256.94 714.157 1324.31 735.018 1380.41 C 695.129 1335.08 699.897 1296.7 699.932 1240.3 L 700.005 1132.76 C 700.023 993.218 701.569 850.175 699.753 710.931 C 732.667 745.376 767.138 779.216 800.448 813.46 L 865.565 879.735 C 899.793 914.528 932.828 952.12 977.422 973.137 C 1032.59 999.138 1100.39 1001.43 1157.52 980.97 C 1221.96 957.827 1274.4 909.767 1303.06 847.586 C 1327.99 793.989 1335.93 725.373 1315.18 669.163 L 1315.66 667.568 z" fill="rgb(248,215,57)" transform="translate(0,0)"></path>
<path d="M 1510.67 1160.15 C 1529.64 1175.65 1553.64 1194.07 1567.33 1214.14 C 1570.61 1223.84 1576.1 1237.41 1577.15 1247.26 C 1587.24 1342.79 1465.43 1402.27 1386.78 1363.42 C 1377.35 1358.76 1351.69 1341.71 1347.8 1333.15 C 1353.66 1324.31 1358.74 1314.59 1364.72 1305.6 C 1378.56 1292.92 1394.53 1275.58 1408.2 1262.18 C 1442.53 1228.52 1476.14 1193.57 1510.67 1160.15 z" fill="rgb(19,19,19)" transform="translate(0,0)"></path>
<path d="M 482.544 832.955 C 481.747 829.36 479.662 825.121 478.341 821.585 C 444.318 730.559 552.943 663.798 632.799 676.902 C 659.186 681.233 678.552 692.625 698.481 710.629 C 696.264 716.285 684.443 737.647 680.669 742.312 C 635.253 789.977 584.141 838.687 537.514 885.608 C 523.444 874.545 490.57 847.774 482.544 832.955 z" fill="rgb(19,19,19)" transform="translate(0,0)"></path>
<path d="M 1093.6 718.145 C 1099.85 707.522 1105.23 697.19 1112.65 687.393 C 1156.78 629.18 1240.78 601.715 1301.82 651.576 C 1306.05 655.026 1314.99 662.095 1315.66 667.568 L 1315.18 669.163 C 1306.92 687.547 1297.84 702.566 1283.82 717.322 C 1258.98 743.074 1225 758.023 1189.24 758.944 C 1150.47 759.78 1121.04 744.374 1093.6 718.145 z" fill="rgb(19,19,19)" transform="translate(0,0)"></path>
<path d="M 856.484 1290.4 C 858.962 1289.94 866.173 1289.85 868.88 1289.86 C 904.594 1290.01 933.896 1306.21 958.558 1331.09 C 950.367 1343.78 946.363 1352.77 936.265 1365.57 C 911.486 1396.6 875.612 1416.78 836.226 1421.84 C 798.301 1424.12 758.48 1411.07 734.825 1379.99 C 742.453 1367.73 747.616 1355.7 757.557 1344.42 C 785.149 1313.13 815.139 1294.49 856.484 1290.4 z" fill="rgb(19,19,19)" transform="translate(0,0)"></path>
<metadata><recraft-signature>{"signed_by": "recraft", "signature_b64": "K59enV1ML8iEgHj5j7mCi3h5lniSra22EZNWVTofXaO0T8Z3qV0+0+oa6i2g6CtFTnqvowTfb513KCfib1wCCw==", "signing_algo": "Ed25519", "generation_timestamp": 1773002020, "identifier": "9deb11a4-355c-4d9c-adfb-cb7d62d1e925"}</recraft-signature></metadata></svg>