<svg xmlns="http://www.w3.org/2000/svg" height="2048" preserveAspectRatio="none" style="display: block;" version="1.1" viewBox="0 0 2048 2048" width="2048">
<path d="M 0 0 L 2048 0 L 2048 2048 L 0 2048 L 0 0 z" fill="rgb(248,211,45)" transform="translate(0,0)"></path>
<path d="M 722.664 1420.94 C 704.106 1448.8 670.894 1474.76 639.908 1486.75 C 599.455 1502.51 554.355 1501.28 514.826 1483.33 C 476.466 1466.02 446.719 1433.96 432.329 1394.41 C 416.084 1350.04 418.136 1301.04 438.034 1258.18 C 446.378 1240.12 462.968 1214.73 473.79 1197.05 L 535.333 1096.4 L 613 969.477 C 630.726 940.325 657.127 893.972 678.554 870.111 C 700.82 845.305 728.926 826.451 760.324 815.258 C 808.103 798.083 859.89 799.045 906 820.929 C 937.661 835.573 964.347 859.159 982.771 888.781 C 1009.22 929.679 1016.51 980.082 1002.73 1026.8 C 998.494 1041.2 990.563 1055.71 986.074 1070.2 C 973.672 1111.27 969.418 1160.26 985.348 1201.17 C 1023.57 1299.34 1132.37 1348.46 1230.64 1313.11 C 1289.61 1291.67 1331.08 1241.75 1368.95 1193.34 L 1370.2 1195.13 C 1352.15 1226.09 1332.13 1258.69 1313.76 1289.58 C 1287.71 1333.38 1250.14 1403.54 1213.78 1438.26 C 1188.25 1462.72 1156.88 1480.23 1122.67 1489.11 C 1069.28 1502.66 1012.7 1494.48 965.339 1466.37 C 958.331 1462.25 952.416 1458.43 946.092 1453.38 C 945.342 1452.98 944.716 1452.67 944.018 1452.13 C 909.831 1425.92 878.712 1382.15 863.206 1342.89 C 856.966 1326.95 852.613 1310.34 850.235 1293.39 C 840.485 1241.85 854.712 1185.21 881.996 1140.22 C 903.12 1105.39 939.792 1064.3 946.11 1023.98 C 951.376 990.374 927.436 954.797 892.476 952.255 C 866.453 950.363 846.023 961.545 826.171 977.564 L 812.538 992.101 C 806.382 1000.73 801.03 1011.1 795.431 1020.23 C 786.265 1035.16 776.998 1050.03 767.721 1064.9 L 668.078 1224.96 C 658.519 1240.59 649.166 1256.34 640.021 1272.21 C 639.117 1273.77 629.964 1290.22 629.635 1290.65 C 618.471 1317.25 612.394 1343.52 623.816 1371.39 C 637.177 1403.99 671.566 1415.17 702.38 1399.92 C 736.634 1384.16 752.466 1354.17 775.794 1327.31 L 777.084 1330.49 C 765.641 1350.58 735.736 1405.81 722.664 1420.94 z" fill="rgb(49,49,54)" transform="translate(0,0)"></path>
<path d="M 818.527 980.718 C 831.905 953.686 848.127 915.536 879.083 905.603 C 925.022 890.863 958.213 930.138 971.205 969.59 C 989.169 1024.15 982.198 1076.67 957.268 1127.53 C 943.978 1154.63 917.317 1184.9 898.208 1209.35 C 887.108 1223.55 875.797 1233.23 866.125 1249.97 C 855.335 1268.65 855.617 1275.27 850.235 1293.39 C 840.485 1241.85 854.712 1185.21 881.996 1140.22 C 903.12 1105.39 939.792 1064.3 946.11 1023.98 C 951.376 990.374 927.436 954.797 892.476 952.255 C 866.453 950.363 846.023 961.545 826.171 977.564 L 812.538 992.101 C 814.22 987.508 815.364 984.38 818.527 980.718 z" fill="rgb(27,27,27)" transform="translate(0,0)"></path>
<path d="M 1368.95 1193.34 L 1370.2 1195.13 C 1352.15 1226.09 1332.13 1258.69 1313.76 1289.58 C 1287.71 1333.38 1250.14 1403.54 1213.78 1438.26 C 1188.25 1462.72 1156.88 1480.23 1122.67 1489.11 C 1069.28 1502.66 1012.7 1494.48 965.339 1466.37 C 958.331 1462.25 952.416 1458.43 946.092 1453.38 C 949.29 1453.29 965.149 1460.66 969.697 1462.33 C 1041.02 1488.44 1123.87 1462.46 1170.93 1403.76 C 1181.62 1390.44 1190.85 1374.13 1200.15 1359.69 C 1210.05 1344.31 1221.5 1328.73 1230.64 1313.11 C 1289.61 1291.67 1331.08 1241.75 1368.95 1193.34 z" fill="rgb(27,27,27)" transform="translate(0,0)"></path>
<path d="M 722.664 1420.94 C 686.844 1437.8 626.403 1461.01 594.044 1424.93 C 579.001 1408.15 578.907 1375.18 588.803 1356.51 C 595.483 1343.91 619.785 1298.59 629.635 1290.65 C 618.471 1317.25 612.394 1343.52 623.816 1371.39 C 637.177 1403.99 671.566 1415.17 702.38 1399.92 C 736.634 1384.16 752.466 1354.17 775.794 1327.31 L 777.084 1330.49 C 765.641 1350.58 735.736 1405.81 722.664 1420.94 z" fill="rgb(27,27,27)" transform="translate(0,0)"></path>
<path d="M 1327.31 625.842 C 1357.37 586.814 1396.84 559.226 1446.55 552.696 C 1488.62 546.888 1531.26 558.261 1564.86 584.252 C 1599.1 610.617 1620.4 651.613 1625.63 694.222 C 1629.42 723.165 1625.88 752.595 1615.33 779.812 C 1606.05 803.132 1587.04 831.759 1573.31 854.001 L 1514.18 950.302 L 1433.63 1082.05 C 1417.28 1108.95 1399.47 1141.71 1380.18 1166.11 C 1314.69 1248.92 1191.81 1272.36 1107.63 1204.58 C 1071.8 1175.52 1048.91 1133.47 1043.93 1087.61 C 1040.33 1056.93 1044.61 1025.83 1056.38 997.27 C 1062.21 983.181 1068.22 971.083 1072.85 956.476 C 1095.44 885.051 1068.62 815.266 1011.25 768.993 C 955.576 724.088 890.831 710.23 822.383 730.786 C 746.88 760.247 727.315 802.648 677.694 858.185 C 681.934 849.836 689.162 838.476 694.039 830.196 L 730.947 768.233 C 750.687 734.851 770.377 700.381 789.846 666.82 C 852.628 558.594 984.986 521.072 1091.93 588.782 C 1100.35 593.338 1110.92 601.925 1118.14 608.206 C 1153.26 638.763 1178.99 678.66 1192.34 723.261 C 1195.46 733.656 1197.75 744.285 1199.19 755.046 C 1204.06 797.052 1200.28 827.098 1184.67 867.792 C 1162.21 926.96 1091.42 986.289 1113.31 1054.02 C 1116.03 1062.43 1124.84 1074.29 1131.74 1079.19 C 1170.31 1106.54 1213.85 1079.99 1239.65 1049.52 C 1255.87 1026.08 1271.77 998.728 1286.85 974.182 L 1372.3 835.462 L 1408.71 775.993 C 1412.6 769.647 1416.53 761.914 1420.38 756.094 C 1427.95 738.301 1433.56 723.465 1432.3 703.809 C 1430.16 670.152 1406.9 637.723 1369.71 641.066 C 1334.96 644.188 1315.37 670.902 1295.21 696.018 C 1284.57 709.548 1273.69 722.896 1262.59 736.055 C 1271.13 719.427 1283.26 699.384 1292.54 682.741 C 1300.66 668.171 1317.48 636.792 1327.31 625.842 z" fill="rgb(49,49,54)" transform="translate(0,0)"></path>
<path d="M 1199.19 755.046 C 1204.06 797.052 1200.28 827.098 1184.67 867.792 C 1162.21 926.96 1091.42 986.289 1113.31 1054.02 C 1116.03 1062.43 1124.84 1074.29 1131.74 1079.19 C 1170.31 1106.54 1213.85 1079.99 1239.65 1049.52 C 1239 1059.21 1225.5 1075.4 1221.55 1084.39 C 1204.68 1122.84 1173.85 1157.69 1127.94 1135.87 C 1104.45 1124.72 1089.45 1099.12 1081.15 1074.47 C 1065.69 1028.54 1069.49 974.622 1088.34 930.124 C 1095.13 913.803 1106.19 899.135 1114.59 883.821 C 1135.53 845.689 1164.55 814.211 1188.04 777.842 C 1192.51 770.932 1195.49 762.47 1199.19 755.046 z" fill="rgb(27,27,27)" transform="translate(0,0)"></path>
<path d="M 677.694 858.185 C 681.934 849.836 689.162 838.476 694.039 830.196 L 730.947 768.233 C 750.687 734.851 770.377 700.381 789.846 666.82 C 852.628 558.594 984.986 521.072 1091.93 588.782 C 1085.59 589.187 1071.54 583.613 1064.55 581.838 C 1004.31 566.529 934.858 587.662 891.191 631.333 C 862.894 659.632 845.314 697.987 822.383 730.786 C 746.88 760.247 727.315 802.648 677.694 858.185 z" fill="rgb(27,27,27)" transform="translate(0,0)"></path>
<path d="M 1327.31 625.842 C 1366.51 607.809 1436.3 583.183 1462.52 635.355 C 1470.15 650.537 1467.5 671.869 1461.12 687.093 C 1454.46 702.476 1431.71 745.644 1420.38 756.094 C 1427.95 738.301 1433.56 723.465 1432.3 703.809 C 1430.16 670.152 1406.9 637.723 1369.71 641.066 C 1334.96 644.188 1315.37 670.902 1295.21 696.018 C 1284.57 709.548 1273.69 722.896 1262.59 736.055 C 1271.13 719.427 1283.26 699.384 1292.54 682.741 C 1300.66 668.171 1317.48 636.792 1327.31 625.842 z" fill="rgb(27,27,27)" transform="translate(0,0)"></path>
<path d="M 785.997 1313.56 C 783.27 1319.94 780.483 1324.5 777.084 1330.49 L 775.794 1327.31 C 777.106 1324.92 783.953 1316.26 785.997 1313.56 z" fill="rgb(59,51,22)" transform="translate(0,0)"></path>
<path d="M 1368.95 1193.34 C 1369.93 1192.05 1374.09 1186.43 1375.32 1185.92 C 1375.55 1186.04 1375.45 1185.94 1375.56 1186.26 C 1375.41 1187.02 1375.17 1187.56 1374.76 1188.22 L 1372.4 1192.11 C 1372.02 1193.09 1371.41 1193.62 1370.71 1194.45 L 1370.2 1195.13 L 1368.95 1193.34 z" fill="rgb(59,51,22)" transform="translate(0,0)"></path>
<metadata><recraft-signature>{"signed_by": "recraft", "signature_b64": "OL7BhkjkBG7Tm81HsQHZTtkSSYKX1qDGtb1HuPD2hpAkCT0xynBOmxb7Mm2Z03rE6euEZAPZHbHnrG3ZGZL5BQ==", "signing_algo": "Ed25519", "generation_timestamp": 1773021563, "identifier": "fd18d44c-8654-4cf9-8eb3-5efd39400cbc"}</recraft-signature></metadata></svg>