<svg xmlns="http://www.w3.org/2000/svg" height="2048" preserveAspectRatio="none" style="display: block;" version="1.1" viewBox="0 0 2048 2048" width="2048">
<defs>
	<linearGradient gradientUnits="userSpaceOnUse" id="Gradient1" x1="1039.33" x2="1320.33" y1="883.672" y2="643.86">
		<stop class="stop0" offset="0" stop-color="rgb(19,19,21)" stop-opacity="1"></stop>
		<stop class="stop1" offset="1" stop-color="rgb(47,49,55)" stop-opacity="1"></stop>
	</linearGradient>
</defs>
<path d="M 0 0 L 2048 0 L 2048 2048 L 0 2048 L 0 0 z" fill="rgb(247,207,58)" transform="translate(0,0)"></path>
<path d="M 495.506 660.526 L 627.579 625.053 L 688.327 608.613 C 713.177 601.972 743.074 592.123 768.457 594.457 C 809.972 598.274 848.713 617.978 878.504 646.755 C 901.632 669.095 915.569 692.966 932.762 719.377 C 948.174 743.336 963.729 767.202 979.427 790.974 L 1208.53 1137.95 L 1278.39 1245.43 C 1292.74 1267.48 1308.81 1293.85 1325.68 1313.6 C 1361.07 1355.03 1411.17 1386.93 1466.52 1390.99 C 1468.14 1390.99 1474.37 1390.64 1475.62 1391.68 C 1475.62 1391.75 1475.63 1391.82 1475.63 1391.89 L 1475.65 1392.02 C 1474.92 1392.93 1473.95 1392.95 1472.79 1393.14 L 1318.84 1433.78 C 1293.03 1440.58 1261.57 1450.36 1235.62 1454.82 C 1188.36 1462.95 1129.17 1440.44 1095.02 1408.35 C 1072.18 1386.87 1056.18 1360.31 1039.4 1335.06 L 989.193 1259.54 L 754.453 904.648 L 691.577 809.282 C 638.239 727.236 602.66 669.939 495.506 660.526 z" fill="rgb(36,36,41)" transform="translate(0,0)"></path>
<path d="M 1466.52 1390.99 C 1468.14 1390.99 1474.37 1390.64 1475.62 1391.68 C 1475.62 1391.75 1475.63 1391.82 1475.63 1391.89 L 1475.65 1392.02 C 1474.92 1392.93 1473.95 1392.95 1472.79 1393.14 C 1470.7 1392.4 1468.61 1391.69 1466.52 1390.99 z" fill="rgb(99,86,40)" transform="translate(0,0)"></path>
<path d="M 1242.73 483.633 C 1247.45 484.135 1263.01 490.189 1268.29 492.125 L 1319.51 510.943 L 1435.85 554.019 C 1469.15 566.496 1502.07 575.196 1528.83 599.555 C 1563.34 630.94 1584.01 674.719 1586.32 721.31 C 1587.69 753.355 1586.17 797.79 1586.18 830.997 L 1586.25 1054.91 L 1586.2 1176.55 C 1586.25 1234.98 1591.98 1280.19 1549.06 1326.81 C 1518.1 1357.81 1480.39 1366.4 1438.04 1355.82 C 1392.47 1344.45 1355.2 1308.71 1331.27 1269.55 L 1331.53 856.737 L 1331.54 726.66 C 1331.55 680.029 1334.33 635.985 1318.98 591.003 C 1303.77 546.439 1278.33 513.405 1242.73 483.633 z" fill="rgb(36,36,41)" transform="translate(0,0)"></path>
<path d="M 463.655 704.703 C 491.121 691.48 512.896 688.675 542.642 698.611 C 584.571 712.618 623.446 750.791 643.143 789.909 C 644.279 796.884 643.811 833.114 643.817 841.242 L 643.874 955.145 L 642.499 1406.05 C 642.685 1449.44 654.338 1492.94 680.753 1527.98 C 688.578 1538.36 697.237 1546.7 706.441 1555.78 C 688.534 1548.17 664.489 1540.11 645.857 1533.34 L 548.821 1497.91 C 493.793 1478.09 456.255 1471.28 424.589 1417.42 C 411.799 1395.3 403.779 1370.75 401.043 1345.34 C 398.791 1324.62 399.845 1291.07 399.852 1269.17 L 399.878 1135.52 L 399.868 922.624 L 399.874 855.996 C 399.878 832.404 398.607 803.591 404.791 781.247 C 414.45 746.346 432.689 722.78 463.655 704.703 z" fill="rgb(36,36,41)" transform="translate(0,0)"></path>
<path d="M 463.655 704.703 C 491.121 691.48 512.896 688.675 542.642 698.611 C 584.571 712.618 623.446 750.791 643.143 789.909 C 641.614 805.754 642.76 843.226 642.768 860.972 L 642.853 996.525 C 642.867 1020.12 643.693 1050.24 642.374 1073.08 C 634.384 1007.27 575.637 942.153 539.83 885.864 C 499.957 823.185 462.218 786.12 463.655 704.703 z" fill="rgb(4,4,4)" transform="translate(0,0)"></path>
<path d="M 754.457 960.946 L 902.211 1183.79 C 929.345 1224.76 963.318 1273.52 988.768 1315.2 C 989.151 1349.41 990.546 1382.3 983.892 1416.1 C 983.365 1422 982.691 1426.66 980.891 1432.35 C 961.19 1494.72 910.915 1551.97 844.87 1565.44 C 809.472 1572.91 772.556 1565.71 742.563 1545.48 C 706.819 1521.45 685.432 1487.21 677.293 1445.27 C 680.455 1442.78 683.564 1440.22 686.617 1437.59 C 719.04 1409.23 739.666 1369.57 748.933 1327.88 C 756.429 1294.16 754.529 1257.19 754.528 1222.46 L 754.459 1093.32 C 754.319 1066.29 753.212 1033.27 754.827 1006.91 C 754.499 991.627 754.933 976.079 754.457 960.946 z" fill="rgb(36,36,41)" transform="translate(0,0)"></path>
<path d="M 754.457 960.946 L 902.211 1183.79 C 929.345 1224.76 963.318 1273.52 988.768 1315.2 C 989.151 1349.41 990.546 1382.3 983.892 1416.1 C 978.42 1373.05 968.302 1360.78 945.073 1325.53 L 901.964 1260.63 L 831.814 1155.34 C 815.996 1131.53 794.37 1095.91 774.869 1073.94 C 768.186 1066.41 759.481 1074.92 755.323 1082.67 C 755.303 1062.86 756.427 1025.25 754.827 1006.91 C 754.499 991.627 754.933 976.079 754.457 960.946 z" fill="rgb(4,4,4)" transform="translate(0,0)"></path>
<path d="M 983.333 630.088 C 983.949 624.969 986.932 614.987 988.802 609.796 C 1019.82 523.687 1106.97 464.506 1197.8 496.167 C 1239.71 513.836 1270.33 544.103 1287.71 586.409 C 1289.66 591.049 1291.34 595.792 1292.76 600.618 C 1264.49 623.659 1246.61 646.044 1232.85 680.384 C 1224.68 700.434 1219.26 721.501 1216.74 743.008 C 1213.25 774.383 1215.1 827.885 1215.02 861.941 L 1214.96 1091.13 L 978.038 732.427 C 978.638 707.807 977.624 681.11 979.473 656.861 C 980.568 647.662 981.201 639.227 983.333 630.088 z" fill="url(#Gradient1)" transform="translate(0,0)"></path>
<path d="M 1197.8 496.167 C 1239.71 513.836 1270.33 544.103 1287.71 586.409 C 1289.66 591.049 1291.34 595.792 1292.76 600.618 C 1264.49 623.659 1246.61 646.044 1232.85 680.384 C 1221.44 658.798 1207.92 643.268 1198.55 618.451 C 1184.05 580.087 1180.94 534.179 1197.8 496.167 z" fill="rgb(4,4,4)" transform="translate(0,0)"></path>
<path d="M 983.333 630.088 C 986.325 635.8 981.817 643.881 981.951 650.49 C 981.987 652.256 980.818 661.587 980.481 661.861 L 980.294 661.824 C 980.047 660.957 979.707 657.982 979.473 656.861 C 980.568 647.662 981.201 639.227 983.333 630.088 z" fill="rgb(36,36,41)" transform="translate(0,0)"></path>
<metadata><recraft-signature>{"signed_by": "recraft", "signature_b64": "g+eIUdsUkwNLdtfXn/ZwYp+Ppmk40QbWDSPB5HlutvU3RlN3khQ9EMn6YNkVW3bxJ+3amPixj4E2nRjGsVCSDw==", "signing_algo": "Ed25519", "generation_timestamp": 1773020337, "identifier": "2452d986-0373-45ed-bb01-c74f99adc035"}</recraft-signature></metadata></svg>