<svg xmlns="http://www.w3.org/2000/svg" height="2048" preserveAspectRatio="none" style="display: block;" version="1.1" viewBox="0 0 2048 2048" width="2048">
<path d="M 0 0 L 2048 0 L 2048 2048 L 0 2048 L 0 0 z" fill="rgb(255,239,16)" transform="translate(0,0)"></path>
<path d="M 1268.77 379.15 C 1433.45 365.223 1482.18 477.881 1557.59 594.707 L 1588.82 643.046 C 1594.24 651.419 1604.43 666.685 1608.49 675.631 C 1614.67 684.014 1620.42 699.381 1624.18 709.183 C 1641.89 755.293 1647.56 801.959 1640.1 850.937 C 1631.44 907.766 1612.53 956.161 1581.64 1004.32 C 1592.21 1025.54 1605.1 1051.73 1613.23 1075.01 C 1638.21 1146.55 1650 1233.19 1628.73 1307 C 1628.65 1307.22 1628.56 1307.45 1628.47 1307.67 C 1617.27 1357.41 1585.26 1394.72 1552.4 1431.51 L 1496.06 1493.95 L 1425.17 1572.72 C 1402.63 1597.35 1384.28 1619.37 1355.53 1637.16 C 1309.98 1665.35 1253.36 1674.57 1201.11 1662.51 C 1100.76 1639.34 1044.71 1548.66 997.514 1466.49 C 923.793 1544.58 843.038 1622.01 738.044 1654.74 C 648.996 1682.5 554.252 1674.5 483.917 1608.06 C 477.366 1601.81 471.125 1595.24 465.217 1588.39 C 422.585 1538.05 404.667 1472.95 406.937 1407.75 C 409.114 1345.21 428.788 1287.55 458.203 1232.72 C 463.171 1223.46 473.637 1204.76 480.61 1198.21 L 481.465 1196.89 C 485.562 1189.78 498.532 1174.59 504.073 1167.97 C 516.488 1153.33 528.745 1138.55 540.842 1123.64 C 529.664 1105.1 518.719 1086.59 508.146 1067.71 C 452.648 968.591 401.625 854.907 430.88 739.01 C 434.164 726.001 438.827 709.91 445.33 698.092 C 448.773 687.165 463.379 661.899 470.712 653.202 L 470.379 655.701 C 469.922 659.027 463.7 665.054 464.612 666.77 C 466.728 664.82 467.007 664.118 469.592 663.404 C 475.375 658.565 482.033 649.776 487.977 644.43 C 513.106 621.831 541.738 604.632 573.602 593.238 C 580.633 590.724 613.088 580.304 618.697 582.899 C 623.443 578.875 650.654 580.347 657.514 580.909 C 707.623 585.01 750.933 613.121 784.231 649.511 L 893.677 509.607 C 901.169 500.04 940.838 447.408 947.259 443.193 C 982.51 482.242 1009.58 539.918 1034.76 585.704 C 1047.3 549.661 1064.1 514.66 1088.07 484.8 C 1133.71 427.955 1195.69 387.931 1268.77 379.15 z" fill="rgb(56,60,69)" transform="translate(0,0)"></path>
<path d="M 1268.77 379.15 C 1433.45 365.223 1482.18 477.881 1557.59 594.707 L 1588.82 643.046 C 1594.24 651.419 1604.43 666.685 1608.49 675.631 C 1614.67 684.014 1620.42 699.381 1624.18 709.183 C 1641.89 755.293 1647.56 801.959 1640.1 850.937 C 1631.44 907.766 1612.53 956.161 1581.64 1004.32 C 1592.21 1025.54 1605.1 1051.73 1613.23 1075.01 C 1638.21 1146.55 1650 1233.19 1628.73 1307 C 1628.65 1307.22 1628.56 1307.45 1628.47 1307.67 L 1628.05 1308.45 C 1620.13 1323.18 1615.96 1336.83 1606.48 1352.85 C 1580.16 1397.36 1539.72 1428.7 1490.53 1444.38 C 1483.07 1446.76 1460.21 1453.04 1453.22 1451 C 1415.83 1457 1371.69 1447.13 1338.87 1428.41 C 1275.77 1392.42 1239.81 1332.55 1205.6 1271.02 C 1201.14 1262.99 1185.41 1235.21 1183.12 1227 C 1178.75 1220.35 1173.33 1207.97 1169.61 1200.59 C 1159.66 1180.89 1150.59 1159.46 1140.32 1140.04 C 1125.3 1112.92 1108.96 1086.8 1091.1 1061.47 C 1083.29 1050.39 1075.46 1038.98 1067.83 1027.72 C 1041.37 988.667 1006.45 955.074 965.659 931.275 C 957.505 926.517 946.151 922.33 938.753 916.788 C 925.073 886.312 906.108 850.46 890.516 820.665 C 859.33 761.074 829.25 699.969 784.231 649.511 L 893.677 509.607 C 901.169 500.04 940.838 447.408 947.259 443.193 C 982.51 482.242 1009.58 539.918 1034.76 585.704 C 1047.3 549.661 1064.1 514.66 1088.07 484.8 C 1133.71 427.955 1195.69 387.931 1268.77 379.15 z" fill="rgb(56,60,69)" transform="translate(0,0)"></path>
<path d="M 1207.13 1167.94 C 1220.34 1117.82 1225.56 1082.02 1226.28 1029.75 C 1226.95 980.338 1218.57 936.646 1217.17 888.149 C 1214.24 786.952 1239.24 662.854 1333.51 607.534 C 1364.2 589.523 1412.04 574.685 1447.8 580.258 C 1452.7 599.615 1458.78 621.478 1459.53 641.444 C 1463.83 755.127 1399.96 860.338 1338.1 950.783 C 1324.82 970.203 1308.87 988.757 1296.32 1008.88 C 1311.69 1031.21 1324.91 1054.04 1338.69 1077.35 C 1366.59 1124.49 1392.9 1172.56 1417.56 1221.47 C 1450.09 1290.34 1471.91 1375.51 1453.22 1451 C 1415.83 1457 1371.69 1447.13 1338.87 1428.41 C 1275.77 1392.42 1239.81 1332.55 1205.6 1271.02 C 1201.14 1262.99 1185.41 1235.21 1183.12 1227 C 1193.65 1206.48 1199.82 1189.53 1207.13 1167.94 z" fill="rgb(255,239,16)" transform="translate(0,0)"></path>
<path d="M 784.231 649.511 L 893.677 509.607 C 901.169 500.04 940.838 447.408 947.259 443.193 C 982.51 482.242 1009.58 539.918 1034.76 585.704 C 988.452 741.988 1028.83 913.72 1118.17 1046.08 C 1144.91 1085.7 1175.66 1132.18 1207.13 1167.94 C 1199.82 1189.53 1193.65 1206.48 1183.12 1227 C 1178.75 1220.35 1173.33 1207.97 1169.61 1200.59 C 1159.66 1180.89 1150.59 1159.46 1140.32 1140.04 C 1125.3 1112.92 1108.96 1086.8 1091.1 1061.47 C 1083.29 1050.39 1075.46 1038.98 1067.83 1027.72 C 1041.37 988.667 1006.45 955.074 965.659 931.275 C 957.505 926.517 946.151 922.33 938.753 916.788 C 925.073 886.312 906.108 850.46 890.516 820.665 C 859.33 761.074 829.25 699.969 784.231 649.511 z" fill="rgb(3,15,20)" transform="translate(0,0)"></path>
<path d="M 1581.64 1004.32 C 1592.21 1025.54 1605.1 1051.73 1613.23 1075.01 C 1638.21 1146.55 1650 1233.19 1628.73 1307 C 1628.65 1307.22 1628.56 1307.45 1628.47 1307.67 L 1628.05 1308.45 C 1620.13 1323.18 1615.96 1336.83 1606.48 1352.85 C 1580.16 1397.36 1539.72 1428.7 1490.53 1444.38 C 1483.07 1446.76 1460.21 1453.04 1453.22 1451 C 1471.91 1375.51 1450.09 1290.34 1417.56 1221.47 C 1424.74 1208.24 1457.91 1166.56 1468.58 1152.58 L 1581.64 1004.32 z" fill="rgb(3,15,20)" transform="translate(0,0)"></path>
<path d="M 1268.77 379.15 C 1433.45 365.223 1482.18 477.881 1557.59 594.707 L 1588.82 643.046 C 1594.24 651.419 1604.43 666.685 1608.49 675.631 C 1606.98 674.945 1607.23 675.269 1606.26 674.135 C 1561.53 621.617 1516.26 596.783 1450.03 580.534 C 1446.27 575.377 1436.97 565.256 1432.42 560.077 C 1418.41 544.276 1404.28 528.594 1390 513.032 L 1268.77 379.15 z" fill="rgb(3,15,20)" transform="translate(0,0)"></path>
<path d="M 618.697 582.899 C 623.443 578.875 650.654 580.347 657.514 580.909 C 707.623 585.01 750.933 613.121 784.231 649.511 C 829.25 699.969 859.33 761.074 890.516 820.665 C 906.108 850.46 925.073 886.312 938.753 916.788 C 938.28 916.728 937.807 916.668 937.334 916.608 C 860.881 886.286 790.996 885.596 716.543 927.758 C 683.346 946.12 660.681 978.664 637.045 1007.47 L 570.825 1087.61 C 564.48 1095.38 547.189 1117.66 540.842 1123.64 C 529.664 1105.1 518.719 1086.59 508.146 1067.71 C 452.648 968.591 401.625 854.907 430.88 739.01 C 434.164 726.001 438.827 709.91 445.33 698.092 C 448.773 687.165 463.379 661.899 470.712 653.202 L 470.379 655.701 C 469.922 659.027 463.7 665.054 464.612 666.77 C 466.728 664.82 467.007 664.118 469.592 663.404 C 475.375 658.565 482.033 649.776 487.977 644.43 C 513.106 621.831 541.738 604.632 573.602 593.238 C 580.633 590.724 613.088 580.304 618.697 582.899 z" fill="rgb(3,15,20)" transform="translate(0,0)"></path>
<path d="M 618.697 582.899 C 623.443 578.875 650.654 580.347 657.514 580.909 C 707.623 585.01 750.933 613.121 784.231 649.511 C 829.25 699.969 859.33 761.074 890.516 820.665 C 906.108 850.46 925.073 886.312 938.753 916.788 C 938.28 916.728 937.807 916.668 937.334 916.608 C 860.881 886.286 790.996 885.596 716.543 927.758 C 688.759 873.946 654.951 823.813 634.547 766.442 C 612.701 705.021 598.792 647.219 618.697 582.899 z" fill="rgb(255,239,16)" transform="translate(0,0)"></path>
<path d="M 470.712 653.202 L 470.379 655.701 C 469.922 659.027 463.7 665.054 464.612 666.77 C 466.728 664.82 467.007 664.118 469.592 663.404 C 463.667 671.604 457.279 679.246 452.052 688.006 C 449.793 691.792 448.344 694.863 445.33 698.092 C 448.773 687.165 463.379 661.899 470.712 653.202 z" fill="rgb(65,70,75)" transform="translate(0,0)"></path>
<path d="M 938.288 1345.52 C 953.464 1371.1 968.337 1407.23 982.174 1434.28 C 986.953 1443.62 992.612 1458.28 997.514 1466.49 C 923.793 1544.58 843.038 1622.01 738.044 1654.74 C 648.996 1682.5 554.252 1674.5 483.917 1608.06 C 477.366 1601.81 471.125 1595.24 465.217 1588.39 C 482.715 1567.46 500.794 1543.36 517.958 1521.7 L 644.187 1360.99 C 646.115 1374.34 652.46 1392.54 660.918 1402.96 C 727.686 1485.17 877.873 1391.6 938.288 1345.52 z" fill="rgb(3,15,20)" transform="translate(0,0)"></path>
<path d="M 480.61 1198.21 L 482.461 1198.2 C 491.855 1190.28 501.347 1182.95 511.473 1176.2 C 550.031 1150.47 596.64 1142.69 642.492 1145.67 C 668.518 1147.36 695.594 1161.2 690.855 1192.24 C 690.18 1197 688.165 1203.43 688.367 1208.03 C 684.252 1217.06 679.116 1225.59 675.097 1234.51 C 656.894 1274.93 640.001 1315.86 644.187 1360.99 L 517.958 1521.7 C 500.794 1543.36 482.715 1567.46 465.217 1588.39 C 422.585 1538.05 404.667 1472.95 406.937 1407.75 C 409.114 1345.21 428.788 1287.55 458.203 1232.72 C 463.171 1223.46 473.637 1204.76 480.61 1198.21 z" fill="rgb(56,60,69)" transform="translate(0,0)"></path>
<path d="M 735.443 1121.26 C 768.471 1131.8 817.155 1165.4 840.249 1192.25 C 878.416 1236.6 910.772 1293.73 938.288 1345.52 C 877.873 1391.6 727.686 1485.17 660.918 1402.96 C 652.46 1392.54 646.115 1374.34 644.187 1360.99 C 640.001 1315.86 656.894 1274.93 675.097 1234.51 C 679.116 1225.59 684.252 1217.06 688.367 1208.03 C 702.988 1178.54 718.691 1149.59 735.443 1121.26 z" fill="rgb(255,239,16)" transform="translate(0,0)"></path>
<path d="M 481.465 1196.89 C 484.596 1195.24 500.584 1177.35 505.386 1173.23 C 568.786 1118.89 654.777 1092.67 735.443 1121.26 C 718.691 1149.59 702.988 1178.54 688.367 1208.03 C 688.165 1203.43 690.18 1197 690.855 1192.24 C 695.594 1161.2 668.518 1147.36 642.492 1145.67 C 596.64 1142.69 550.031 1150.47 511.473 1176.2 C 501.347 1182.95 491.855 1190.28 482.461 1198.2 L 480.61 1198.21 L 481.465 1196.89 z" fill="rgb(3,15,20)" transform="translate(0,0)"></path>
<path d="M 470.712 653.202 C 474.973 645.446 495.744 622.759 502.484 615.221 L 550.137 561.624 L 620.649 481.861 C 638.385 461.788 657.993 438.207 678.505 421.559 C 718.822 388.186 771.026 372.739 823.011 378.8 C 865.525 383.522 920.374 409.794 947.259 443.193 C 940.838 447.408 901.169 500.04 893.677 509.607 L 784.231 649.511 C 750.933 613.121 707.623 585.01 657.514 580.909 C 650.654 580.347 623.443 578.875 618.697 582.899 C 613.088 580.304 580.633 590.724 573.602 593.238 C 541.738 604.632 513.106 621.831 487.977 644.43 C 482.033 649.776 475.375 658.565 469.592 663.404 C 467.007 664.118 466.728 664.82 464.612 666.77 C 463.7 665.054 469.922 659.027 470.379 655.701 L 470.712 653.202 z" fill="rgb(56,60,69)" transform="translate(0,0)"></path>
<metadata><recraft-signature>{"signed_by": "recraft", "signature_b64": "jMLERNC6RyVXrKZ2WokKcpxMEfmhTmcsoyQSbzubit37ssnAD66BPFUu2tVcpGJWKNAlaXP6N4Ak/dirGWVoAw==", "signing_algo": "Ed25519", "generation_timestamp": 1773021458, "identifier": "2e6562d0-6458-4e49-9cf7-242253943c73"}</recraft-signature></metadata></svg>