<svg xmlns="http://www.w3.org/2000/svg" height="2048" preserveAspectRatio="none" style="display: block;" version="1.1" viewBox="0 0 2048 2048" width="2048">
<defs>
	<linearGradient gradientUnits="userSpaceOnUse" id="Gradient1" x1="895.024" x2="1244.32" y1="1225.16" y2="1406.12">
		<stop class="stop0" offset="0" stop-color="rgb(22,22,22)" stop-opacity="1"></stop>
		<stop class="stop1" offset="1" stop-color="rgb(60,60,61)" stop-opacity="1"></stop>
	</linearGradient>
	<linearGradient gradientUnits="userSpaceOnUse" id="Gradient2" x1="1153.02" x2="809.836" y1="817.858" y2="642.091">
		<stop class="stop0" offset="0" stop-color="rgb(22,22,22)" stop-opacity="1"></stop>
		<stop class="stop1" offset="1" stop-color="rgb(60,60,60)" stop-opacity="1"></stop>
	</linearGradient>
</defs>
<path d="M 0 0 L 2048 0 L 2048 2048 L 0 2048 L 0 0 z" fill="rgb(250,215,48)" transform="translate(0,0)"></path>
<path d="M 847.473 507.212 C 907.478 506.773 934.981 501.194 981.504 547.194 C 999.083 564.576 1022.75 592.371 1039.69 608.643 C 1091.89 658.764 1115.52 669.642 1115.74 746.366 L 1115.63 829.263 C 1115.64 843.082 1116.23 861.249 1115.63 874.749 L 1115.77 899.162 C 1068.45 899.119 1020.22 899.57 972.977 898.999 L 931.953 899.048 L 932.026 708.632 L 905.208 708.602 L 696.203 708.556 L 625.496 708.412 C 612.963 708.378 596.486 708.783 584.376 707.91 L 584.355 732.559 L 584.568 1337.98 C 606.743 1337.95 630.49 1337.51 652.524 1338.14 C 663.702 1337.87 674.885 1337.85 686.064 1338.08 C 681.918 1340.43 664.909 1344.03 659.038 1346.12 C 631.664 1355.87 609.955 1378.6 600.676 1405.96 C 591.844 1431.57 593.665 1459.65 605.729 1483.91 C 621.31 1514.93 644.54 1526.12 674.817 1538.79 C 677.598 1539.96 679.653 1537.88 683.019 1539.5 L 681.181 1540.28 C 675.679 1540.4 670.535 1540.25 665.051 1540.1 C 637.62 1542.44 592.085 1542.3 567.261 1530.37 C 527.687 1511.35 499.495 1469.7 467.75 1439.98 C 454.464 1427.54 441.389 1414.47 427.906 1402.17 C 385.498 1362.92 389.47 1321.02 389.483 1269.23 L 389.601 1157.61 L 389.184 789.96 C 389.707 712.182 450.387 676.273 498.854 625.588 C 544.455 577.901 583.235 512.778 656.1 508.223 C 684.533 506.445 712.868 507.178 741.233 507.155 C 776.671 507.127 812.11 506.747 847.473 507.212 z" fill="rgb(38,38,39)" transform="translate(0,0)"></path>
<path d="M 847.473 507.212 C 907.478 506.773 934.981 501.194 981.504 547.194 C 999.083 564.576 1022.75 592.371 1039.69 608.643 C 1091.89 658.764 1115.52 669.642 1115.74 746.366 L 1115.63 829.263 C 1115.64 843.082 1116.23 861.249 1115.63 874.749 L 1115.77 899.162 C 1068.45 899.119 1020.22 899.57 972.977 898.999 L 931.953 899.048 L 932.026 708.632 L 905.208 708.602 C 909.209 706.666 925.89 709.041 930.806 707.964 C 935.118 707.018 941.045 697.418 943.587 693.303 C 960.007 665.015 975.773 629.533 971.11 596.214 C 963.848 544.334 924.06 519.647 875.947 510.225 C 865.944 508.267 857.526 508.164 847.473 507.212 z" fill="url(#Gradient2)" transform="translate(0,0)"></path>
<path d="M 1113.44 898.042 C 1114.87 865.755 1113.48 832.247 1113.99 799.919 C 1114.12 791.706 1113.34 768.428 1114.37 761.302 C 1115.9 775.655 1113.08 870.29 1115.63 874.749 L 1115.77 899.162 C 1068.45 899.119 1020.22 899.57 972.977 898.999 C 977.905 896.193 994.132 894.544 1000.82 892.327 C 1045.49 877.512 1081.3 843.601 1101.4 801.305 C 1105.53 792.624 1108.82 780.189 1111.5 770.872 C 1114.88 781.977 1092.65 821.182 1085.38 831.071 C 1061.61 863.378 1025.66 890.6 985.396 897 C 1015.47 896.898 1045.23 898.406 1075.31 897.723 C 1087.2 897.452 1101.73 896.914 1113.44 898.042 z" fill="rgb(3,3,2)" transform="translate(0,0)"></path>
<path d="M 652.524 1338.14 C 663.702 1337.87 674.885 1337.85 686.064 1338.08 C 681.918 1340.43 664.909 1344.03 659.038 1346.12 C 631.664 1355.87 609.955 1378.6 600.676 1405.96 C 591.844 1431.57 593.665 1459.65 605.729 1483.91 C 621.31 1514.93 644.54 1526.12 674.817 1538.79 C 677.598 1539.96 679.653 1537.88 683.019 1539.5 L 681.181 1540.28 C 675.679 1540.4 670.535 1540.25 665.051 1540.1 C 661.835 1539.35 647.251 1538.35 642.569 1537.75 C 617.505 1534.68 592.375 1526.84 572.486 1510.77 C 517.269 1466.13 547.126 1384.29 585.174 1338.87 C 603.084 1338.47 636.278 1340.15 652.524 1338.14 z" fill="rgb(3,3,2)" transform="translate(0,0)"></path>
<path d="M 390.399 868.189 C 390.212 852.701 390.135 837.212 390.169 821.722 C 390.464 790.368 402.109 757.505 425.106 734.317 C 464.321 694.778 526.514 708.997 576.67 706.019 C 579.676 705.841 582.37 705.816 584.376 707.91 L 584.355 732.559 C 537.141 731.894 496.82 738.001 457.064 766.173 C 422.587 790.604 397.653 826.251 390.399 868.189 z" fill="rgb(3,3,2)" transform="translate(0,0)"></path>
<path d="M 1142.04 927.007 L 1142.23 780.741 C 1142.24 744.735 1139.62 691.324 1148.05 658.045 C 1156.9 623.613 1174.86 592.198 1200.04 567.095 C 1232.66 534.053 1275.7 513.308 1321.87 508.377 C 1336.41 506.967 1356.08 507.391 1370.98 507.339 L 1431.55 507.174 C 1504.33 507.467 1530.81 559.057 1578.26 604.89 C 1612.84 638.293 1652.74 666.327 1657.31 718.632 C 1658.82 737.386 1658.15 756.767 1658.14 775.618 L 1658.09 872.827 L 1658.18 1173.35 C 1658.15 1174.16 1658.13 1174.97 1658.1 1175.78 C 1658.08 1177.56 1658.14 1182.14 1657.98 1183.71 C 1658.26 1202.41 1658.33 1221.11 1658.2 1239.81 C 1655.19 1248.73 1653.91 1258.03 1651.04 1267.38 C 1640.34 1302.21 1611.88 1334.8 1574.29 1340.07 C 1546.16 1344.02 1515.38 1340.97 1487.01 1342.07 C 1480.72 1342.2 1470.67 1342.52 1464.63 1341.4 L 1463.88 1340.27 L 1464 1316.52 L 1463.98 710.093 C 1434.37 710.11 1403.57 710.533 1374.05 709.862 L 1372.41 709.89 C 1362.97 710.078 1353.52 710.126 1344.08 710.033 L 1344.09 770.556 C 1344.14 791.479 1344.83 817.069 1344.06 837.668 C 1336.66 875.795 1323.25 925.165 1275.93 929.979 C 1262.45 931.35 1146.36 932.217 1142.22 929.431 L 1142.04 927.007 z" fill="rgb(38,38,39)" transform="translate(0,0)"></path>
<path d="M 1372.41 709.89 C 1376.43 706.75 1392.97 703.658 1399.23 700.997 C 1433.27 686.513 1454.65 656.127 1459.04 620.084 C 1462.09 593.619 1454.39 567.035 1437.66 546.304 C 1421.84 526.423 1396.38 512.19 1371.36 508.534 C 1422.76 506.62 1488.93 521.702 1503.68 578.519 C 1515.78 625.098 1490.5 672.865 1464.04 709.243 L 1409.58 709.253 C 1400.28 709.217 1382.95 708.667 1374.05 709.862 L 1372.41 709.89 z" fill="rgb(3,3,2)" transform="translate(0,0)"></path>
<path d="M 1658.1 1175.78 C 1658.08 1177.56 1658.14 1182.14 1657.98 1183.71 C 1658.26 1202.41 1658.33 1221.11 1658.2 1239.81 C 1655.19 1248.73 1653.91 1258.03 1651.04 1267.38 C 1640.34 1302.21 1611.88 1334.8 1574.29 1340.07 C 1546.16 1344.02 1515.38 1340.97 1487.01 1342.07 C 1480.72 1342.2 1470.67 1342.52 1464.63 1341.4 L 1463.88 1340.27 L 1464 1316.52 C 1554.25 1318.13 1634.07 1284.28 1655.51 1188.98 C 1656 1184.13 1656.98 1180.49 1658.1 1175.78 z" fill="rgb(3,3,2)" transform="translate(0,0)"></path>
<path d="M 1142.87 913.511 C 1224.52 922.374 1299.19 887.765 1333.06 809.515 C 1338.52 796.898 1339.29 782.435 1344.09 770.556 C 1344.14 791.479 1344.83 817.069 1344.06 837.668 C 1336.66 875.795 1323.25 925.165 1275.93 929.979 C 1262.45 931.35 1146.36 932.217 1142.22 929.431 L 1142.04 927.007 C 1143.13 923.275 1142.85 917.568 1142.87 913.511 z" fill="rgb(3,3,2)" transform="translate(0,0)"></path>
<path d="M 1142.04 927.007 L 1142.22 929.431 C 1146.36 932.217 1262.45 931.35 1275.93 929.979 C 1323.25 925.165 1336.66 875.795 1344.06 837.668 C 1345.03 889.712 1345.31 918.111 1306.37 958.372 C 1286.86 978.545 1260.96 999.726 1242.71 1019.04 C 1191.42 1073.34 1173.75 1115.81 1089.38 1118.29 C 1029.73 1120.05 964.935 1116.39 906.122 1118.36 L 906.2 1133.23 L 906.319 1278.64 C 906.317 1310.17 908.463 1357.36 901.546 1386.57 C 893.013 1422.15 874.931 1454.72 849.25 1480.78 C 805.699 1524.41 755.561 1542.36 694.813 1540.72 C 691.539 1540.63 683.783 1540.88 681.181 1540.28 L 683.019 1539.5 C 679.653 1537.88 677.598 1539.96 674.817 1538.79 C 644.54 1526.12 621.31 1514.93 605.729 1483.91 C 593.665 1459.65 591.844 1431.57 600.676 1405.96 C 609.955 1378.6 631.664 1355.87 659.038 1346.12 C 664.909 1344.03 681.918 1340.43 686.064 1338.08 C 690.031 1337.7 699.212 1337.95 703.572 1337.96 L 703.078 1227.83 C 703.046 1207.49 702.02 1185.45 704.88 1165.45 C 713.266 1107.87 763.796 1075.57 801.885 1037.16 C 827.287 1011.55 852.746 973.428 881.361 952.811 C 897.935 941.066 916.841 933.022 936.797 929.223 C 955.268 925.721 979.155 926.486 998.369 926.475 L 1075.05 926.361 C 1087.34 926.336 1132.91 925.517 1142.04 927.007 z" fill="rgb(38,38,39)" transform="translate(0,0)"></path>
<path d="M 906.2 1133.23 C 874.678 1131.98 845.991 1133 815.807 1143.58 C 770.451 1159.48 729.895 1194.57 713.634 1240.55 C 711.508 1246.57 709.872 1252.47 707.04 1258.21 C 705.991 1252.29 718.067 1224.09 721.69 1218.05 C 754.361 1163.62 811.819 1133.09 874.814 1131.28 C 878.429 1131.18 902.198 1131.73 902.681 1131.64 C 901.291 1125.51 903.867 1123.55 902.839 1119.29 C 902.201 1119.05 901.563 1118.82 900.924 1118.59 C 860.094 1118.38 813.735 1116.25 773.452 1119.09 C 737.015 1121.66 708.664 1171.09 705.688 1203.36 C 704.496 1216.28 705.257 1228.5 704.937 1241.16 C 704.725 1249.55 706.38 1263.86 704.721 1270.91 C 703.248 1260.78 704.404 1249.25 704.157 1239.17 C 703.034 1208.53 703.57 1189.77 717.391 1162.13 C 744.3 1108.3 787.716 1116.46 838.782 1116.78 C 849.979 1116.85 898.979 1114.59 906.122 1118.36 L 906.2 1133.23 z" fill="rgb(3,3,2)" transform="translate(0,0)"></path>
<path d="M 1067.59 1145.82 C 1083.32 1144.64 1101.13 1145.71 1117.1 1145.4 C 1117.47 1192.65 1117.58 1239.9 1117.43 1287.15 C 1117.41 1295.09 1116.48 1336.15 1118.55 1339.56 L 1121.85 1340.56 C 1129.04 1339.11 1145.29 1339.55 1153.19 1339.58 L 1205.04 1339.78 C 1261.65 1338.57 1322.79 1339.72 1379.74 1339.7 L 1435.01 1339.66 C 1441.65 1339.66 1457.95 1339.26 1463.88 1340.27 L 1464.63 1341.4 C 1470.67 1342.52 1480.72 1342.2 1487.01 1342.07 C 1515.38 1340.97 1546.16 1344.02 1574.29 1340.07 C 1611.88 1334.8 1640.34 1302.21 1651.04 1267.38 C 1653.91 1258.03 1655.19 1248.73 1658.2 1239.81 C 1658.47 1295.68 1655.19 1321.05 1613.85 1361.81 C 1571.04 1404.03 1525.17 1441.27 1488.82 1488.67 C 1461.12 1524.77 1410.62 1543.46 1367.27 1540.68 C 1318 1540.21 1268.44 1541.19 1219.33 1540.65 C 1138.07 1539.48 1118.6 1551.89 1056.89 1488.5 C 1043.85 1474.9 1030.74 1461.38 1017.54 1447.94 C 961.581 1391.55 931.251 1385.06 934.017 1296.87 C 933.03 1282.97 933.466 1262.65 933.38 1248.3 L 933.425 1145.66 C 977.125 1145.66 1024.08 1144.84 1067.59 1145.82 z" fill="rgb(38,38,39)" transform="translate(0,0)"></path>
<path d="M 1067.59 1145.82 C 1083.32 1144.64 1101.13 1145.71 1117.1 1145.4 C 1117.47 1192.65 1117.58 1239.9 1117.43 1287.15 C 1117.41 1295.09 1116.48 1336.15 1118.55 1339.56 L 1121.85 1340.56 C 1116.6 1348.15 1110.96 1355.95 1106.3 1363.55 C 1075.78 1413.31 1067.64 1481.25 1122.51 1517.45 C 1135.37 1525.93 1161.17 1537.09 1176.22 1537.99 L 1174.66 1539.47 C 1171.95 1538.95 1166.67 1537.51 1164.46 1538.99 C 1178.13 1540.39 1204.67 1540.01 1219.14 1539.76 L 1219.33 1540.65 C 1138.07 1539.48 1118.6 1551.89 1056.89 1488.5 C 1043.85 1474.9 1030.74 1461.38 1017.54 1447.94 C 961.581 1391.55 931.251 1385.06 934.017 1296.87 C 933.03 1282.97 933.466 1262.65 933.38 1248.3 L 933.425 1145.66 C 977.125 1145.66 1024.08 1144.84 1067.59 1145.82 z" fill="url(#Gradient1)" transform="translate(0,0)"></path>
<path d="M 933.425 1145.66 C 977.125 1145.66 1024.08 1144.84 1067.59 1145.82 L 1073.67 1146.48 C 1066.86 1147.51 1061 1147.11 1054.22 1147.14 C 1014.55 1147.33 974.701 1146.55 935.049 1147.05 L 935.016 1252.07 C 935.03 1260.5 937.114 1291.8 934.017 1296.87 C 933.03 1282.97 933.466 1262.65 933.38 1248.3 L 933.425 1145.66 z" fill="rgb(3,3,2)" transform="translate(0,0)"></path>
<path d="M 1121.85 1340.56 C 1129.04 1339.11 1145.29 1339.55 1153.19 1339.58 L 1205.04 1339.78 C 1202.92 1340.81 1200.11 1342.15 1197.67 1342.02 C 1173.13 1340.64 1148.57 1341 1123.98 1341.02 C 1057.21 1430.63 1069.76 1527.12 1197.27 1538.15 C 1202.15 1538.57 1217.22 1538.4 1220.91 1539.6 L 1219.14 1539.76 C 1204.67 1540.01 1178.13 1540.39 1164.46 1538.99 C 1166.67 1537.51 1171.95 1538.95 1174.66 1539.47 L 1176.22 1537.99 C 1161.17 1537.09 1135.37 1525.93 1122.51 1517.45 C 1067.64 1481.25 1075.78 1413.31 1106.3 1363.55 C 1110.96 1355.95 1116.6 1348.15 1121.85 1340.56 z" fill="rgb(3,3,2)" transform="translate(0,0)"></path>
<metadata><recraft-signature>{"signed_by": "recraft", "signature_b64": "4n8R/nq2LzzhIkTNYKejwjgSTffSyzNRdtUsy+RfBgtThQZmOkA9tMG8lxb5HATIhCyOmHrf/ZavChA4k6f8Cg==", "signing_algo": "Ed25519", "generation_timestamp": 1773020339, "identifier": "50686651-ab94-4ecf-9f82-2458d79dac27"}</recraft-signature></metadata></svg>