<svg width="1024" height="1024" viewBox="0 0 1024 1024" fill="none" xmlns="http://www.w3.org/2000/svg">
<path d="M172.105 519.514C171.369 472.433 172.006 424.009 172.005 376.816L171.906 326.256C171.886 316.754 171.794 307.222 171.905 297.724C172.284 265.104 185.94 233.113 208.568 209.738C231.155 186.407 262.057 173.002 294.495 172.462C326.541 172.081 357.767 185.562 380.041 208.326C391.625 220.166 404.047 237.893 414.206 251.43L462.309 315.459L619.292 526.112L654.965 574.374C663.814 586.287 674.079 601.788 685.252 611.146C719.585 639.919 772.779 632.775 803.439 602.059C804.892 600.608 806.097 599.477 807.139 597.707L807.728 597.983C812.013 594.747 818.415 587.002 822.078 582.715C836.751 565.568 846.346 545.429 851.138 523.373C852.418 517.49 852.991 512.083 854.018 506.183C854.558 510.708 854.174 525.971 854.164 531.151L854.083 585.448L854.18 685.07C854.223 702.335 855.206 731.871 852.5 748.087C849.209 767.485 841.532 785.865 830.068 801.832C810.883 829.002 781.71 847.421 748.97 853.05C703.188 860.627 658.941 840.942 632.139 803.396C624.268 792.366 615.64 781.259 607.525 770.337C592.916 750.934 578.448 731.427 564.11 711.818L403.968 495.766L375.626 457.393C365.011 443.058 353.112 424.631 338.838 414.482C319.72 400.803 295.851 395.552 272.771 399.947C253.84 403.367 229.483 415.332 218.317 431.297C214.268 431.996 199.143 451.506 196.274 455.568C186.394 469.566 179.333 485.36 175.487 502.064C174.148 507.861 173.326 514.258 172.105 519.514Z" class="a"/>
<path d="M592.047 375.644C568.167 361.483 550.728 338.556 543.44 311.728C536.292 284.869 540.047 256.267 553.877 232.17C570.242 204.359 597.017 184.25 628.255 176.313C635.689 174.445 643.285 173.273 650.94 172.813C663.388 171.977 681.724 172.628 694.55 172.603C713.394 172.568 735.518 171.519 753.724 175.041C766.966 177.705 779.662 182.59 791.283 189.49C820.797 207.015 842.04 235.686 850.247 269.06C854.915 287.357 854.142 302.894 854.18 321.532L854.277 361.87L854.12 411.328C854.131 423.599 854.401 437.046 854.066 449.246L854.093 486.237C854.099 492.068 854.363 500.516 854.012 506.183C852.986 512.083 852.413 517.49 851.133 523.373C846.341 545.429 836.746 565.568 822.072 582.715C818.409 587.002 812.007 594.747 807.723 597.984L807.134 597.707C824.514 561.704 817.864 525.879 789.225 497.615C781.321 489.818 771.531 484.71 762.098 478.973L732.119 460.786L637.812 403.61C623.549 394.92 605.488 384.745 592.047 375.644Z" class="a"/>
<path d="M592.046 375.646C595.061 375.886 600.474 378.469 603.624 379.506C622.814 385.826 646.488 383.675 666.72 383.64L739.693 383.608C757.295 383.606 777.133 382.34 794.2 385.695C821.402 391.043 844.395 411.269 851.553 438.274C852.418 441.568 852.574 446.365 854.066 449.248L854.093 486.239C854.098 492.07 854.363 500.518 854.012 506.185C852.985 512.084 852.412 517.491 851.132 523.375C846.34 545.43 836.745 565.57 822.072 582.717C818.409 587.003 812.006 594.749 807.722 597.985L807.133 597.709C824.513 561.706 817.863 525.881 789.224 497.617C781.32 489.819 771.53 484.712 762.097 478.974L732.119 460.788L637.811 403.612C623.548 394.922 605.488 384.747 592.046 375.646Z" class="b"/>
<path d="M172.101 519.517C173.322 514.261 174.145 507.864 175.483 502.067C179.329 485.363 186.39 469.569 196.27 455.571C199.139 451.508 214.264 431.999 218.313 431.3C208.889 455.158 206.625 478.19 216.968 502.408C222.174 514.369 230.117 524.934 240.155 533.248C250.45 541.908 277.823 557.133 290.326 564.732L386.928 623.495C401.37 632.301 422.961 644.528 436.294 653.967C440.866 656.164 452.639 666.177 456.113 669.652C475.193 688.801 485.753 714.851 485.403 741.908C485.141 771.568 473.171 799.919 452.108 820.762C433.11 839.375 408.401 851.023 381.976 853.827C355.217 856.565 324.337 853.713 297.171 854.714C264.547 855.921 229.977 839.938 207.379 816.437C191.662 800.135 180.516 779.969 175.067 757.972C171.295 742.482 171.917 728.063 171.934 712.329L171.961 676.889C171.933 643.884 171.367 608.481 172.076 575.6C171.556 558.621 171.68 536.485 172.101 519.517Z" class="a"/>
<path d="M172.101 519.517C173.322 514.261 174.144 507.864 175.483 502.067C179.329 485.363 186.39 469.569 196.27 455.571C199.139 451.508 214.263 431.999 218.313 431.3C208.889 455.158 206.625 478.19 216.968 502.408C222.174 514.369 230.117 524.934 240.155 533.248C250.449 541.908 277.823 557.133 290.326 564.732L386.928 623.495C401.37 632.301 422.961 644.528 436.294 653.967C434.453 654.059 431.426 652.614 429.634 651.807C407.389 641.805 381.786 644.095 357.8 644.1L281.071 644.116C269.114 644.116 247.429 644.755 236.375 642.958C225.573 641.302 215.233 637.41 206.011 631.538C183.9 617.173 177.117 599.864 172.076 575.6C171.556 558.621 171.68 536.485 172.101 519.517Z" class="b"/>
</svg>
