<svg width="198" height="198" viewBox="21 21 198 198" fill="none" xmlns="http://www.w3.org/2000/svg">
<path d="M39.85 60.49V79.72H59.85V90.09H39.85V119.92H30L30 130H40.15L40 142.66H41.88V139.04H44.2V137.16H46.98V135.28H49.3V137.16H51.18V135.28H53.5V137.16H51.18V139.04H48.86V140.92H46.54V139.04H43.76V140.92H40V146.48H41.88V144.6H43.76V146.48H45.64V144.6H47.52V146.48H49.4V144.6H51.28V146.48H53.16V144.6H55.04V146.48H56.92V144.6H58.8V146.48H60.68V144.6H62.56V146.48H64.44V144.6H66.32V142.72H64.44V140.84H66.32V138.96H64.44V135.22H62.56V137.1H60.68V135H58.8H56.92V132.46H55.04V130.58H53.16V128.7H55.04V130.58H56.92V128.7H58.8V130.58H60.68V132.46H62.56V130.58H64.44V134.32H66.32V130.58H68.2V132.46H70.08V120.14H60.08L60 100H70.08V100.001V120.14H90V150.18H99.71V159.91L120 159.832V179.922L150.12 180L150 160.092L140 160V150H150.12V99.71H148.24V97.83H150.12V94.09H148.24V92.21H150.12V88.47H148.24V86.59H150.12V82.85H148.24V80.97H150.12V77.23H148.24V75.35H150.12V71.61H148.24V69.73H146.36V67.85H144.48V69.73H146.36V71.61H144.48V69.73H140.74V73.47H136.86V71.59H133.12V69.71H130.01V71.59H128.13V69.71H121.63V73.45H119.31V75.33H121.19V77.21H119.31V79.09H121.19V77.21H123.07V79.09H121.19V80.97H123.07V82.85H119.31V114.92H100.33V104.53H100.12V102.65H98.24V100.77H100.12V97H98.24V95.12H100.12V90.38H98.24V90.17H90.3V80.09H79.52V60.49H39.85ZM68.2 128.7H70.08V130.58H68.2V128.7Z" fill="#F7D71C"/>
<path d="M90 30H100V40H90V30Z" fill="#F7D71C"/>
<path d="M150 200H160V210H150V200Z" fill="#F7D71C"/>
<path d="M47.8999 128.7H50.0899V130.88H47.8999V128.7Z" fill="#F7D71C"/>
<path d="M170.25 99.8604H190V150H210.01V170H190V180H160V113.23H161.88V110.23H165.97V107.91H161.88V104.53H160V90H170.25V99.8604Z" fill="#F7D71C"/>
</svg>
